<svg width="24" height="22" viewBox="0 0 24 22" fill="none" xmlns="http://www.w3.org/2000/svg">
<path d="M12.7 4.30843C12.8833 4.47649 12.9793 4.69037 12.988 4.9501C12.9967 5.20982 12.909 5.42371 12.725 5.59176L7.825 10.0834L19 10.0834C19.2833 10.0834 19.521 10.1714 19.713 10.3474C19.905 10.5234 20.0007 10.741 20 11.0001C20 11.2598 19.904 11.4777 19.712 11.6537C19.52 11.8297 19.2827 11.9174 19 11.9168L7.825 11.9168L12.725 16.4084C12.9083 16.5765 12.996 16.7904 12.988 17.0501C12.98 17.3098 12.884 17.5237 12.7 17.6918C12.5167 17.8598 12.2833 17.9438 12 17.9438C11.7167 17.9438 11.4833 17.8598 11.3 17.6918L4.7 11.6418C4.6 11.5654 4.529 11.4697 4.487 11.3548C4.445 11.24 4.42433 11.1217 4.425 11.0001C4.425 10.8779 4.44566 10.7633 4.487 10.6563C4.52833 10.5494 4.59933 10.4501 4.7 10.3584L11.3 4.30843C11.4833 4.14038 11.7167 4.05635 12 4.05635C12.2833 4.05635 12.5167 4.14038 12.7 4.30843Z" fill="#40A5D9"/>
</svg>
