<svg width="111" height="111" viewBox="0 0 111 111" fill="none" xmlns="http://www.w3.org/2000/svg">
<path d="M44.1679 81.2845C43.5512 81.2845 42.9731 81.1873 42.4335 80.9931C41.894 80.7988 41.3929 80.472 40.9304 80.0126L21.0429 60.1251C20.195 59.2772 19.7895 58.178 19.8265 56.8275C19.8635 55.477 20.3075 54.3793 21.1585 53.5345C22.0065 52.6866 23.0856 52.2626 24.396 52.2626C25.7065 52.2626 26.7856 52.6866 27.6335 53.5345L44.1679 70.0688L83.3648 30.872C84.2127 30.0241 85.3119 29.6001 86.6624 29.6001C88.0129 29.6001 89.1106 30.0241 89.9554 30.872C90.8033 31.7199 91.2273 32.8191 91.2273 34.1696C91.2273 35.5201 90.8033 36.6178 89.9554 37.4626L47.4054 80.0126C46.9429 80.4751 46.4419 80.8035 45.9023 80.9977C45.3627 81.192 44.7846 81.2876 44.1679 81.2845Z" fill="#8FC04F"/>
<path d="M75.1127 26.8314C67.6904 21.2845 58.4788 18 48.5 18C23.9233 18 4 37.9233 4 62.5C4 87.0767 23.9233 107 48.5 107C73.0767 107 93 87.0767 93 62.5C93 57.6234 92.2156 52.9301 90.766 48.5392" stroke="#8FC04F" stroke-width="5" stroke-linecap="round"/>
</svg>
