<svg width="22" height="27" viewBox="0 0 22 27" fill="none" xmlns="http://www.w3.org/2000/svg">
<path d="M11 12.7197C11.6187 12.7197 12.1486 12.49 12.5896 12.0306C13.0299 11.572 13.25 11.0204 13.25 10.3758C13.25 9.73121 13.0299 9.17921 12.5896 8.7198C12.1486 8.26116 11.6187 8.03185 11 8.03185C10.3813 8.03185 9.85175 8.26116 9.4115 8.7198C8.9705 9.17921 8.75 9.73121 8.75 10.3758C8.75 11.0204 8.9705 11.572 9.4115 12.0306C9.85175 12.49 10.3813 12.7197 11 12.7197ZM11 24C10.85 24 10.7 23.9707 10.55 23.9121C10.4 23.8535 10.2688 23.7754 10.1562 23.6777C7.41875 21.158 5.375 18.8191 4.025 16.6611C2.675 14.5023 2 12.4854 2 10.6102C2 7.68025 2.90488 5.34607 4.71463 3.60764C6.52363 1.86921 8.61875 1 11 1C13.3812 1 15.4764 1.86921 17.2854 3.60764C19.0951 5.34607 20 7.68025 20 10.6102C20 12.4854 19.325 14.5023 17.975 16.6611C16.625 18.8191 14.5813 21.158 11.8438 23.6777C11.7312 23.7754 11.6 23.8535 11.45 23.9121C11.3 23.9707 11.15 24 11 24Z" fill="#9D9D9D"/>
</svg>
