<svg width="27" height="26" viewBox="0 0 27 26" fill="none" xmlns="http://www.w3.org/2000/svg">
<path d="M13 2C19.0753 2 24 6.9247 24 13C24 19.0753 19.0753 24 13 24C11.0561 24.0031 9.14633 23.4887 7.46701 22.5095L2.00442 24L3.49161 18.5352C2.51162 16.8554 1.99677 14.9448 2.00002 13C2.00002 6.9247 6.92471 2 13 2ZM9.25121 7.83L9.03121 7.8388C8.88878 7.84747 8.74959 7.88489 8.62201 7.9488C8.50268 8.01637 8.39376 8.10084 8.29861 8.1996C8.16661 8.3239 8.09181 8.4317 8.01151 8.5362C7.60465 9.06519 7.38558 9.71464 7.38891 10.382C7.39111 10.921 7.53191 11.4457 7.75191 11.9363C8.20181 12.9285 8.94211 13.979 9.91891 14.9525C10.1543 15.1868 10.3853 15.4222 10.6339 15.6411C11.8476 16.7097 13.294 17.4803 14.8579 17.8917L15.4827 17.9874C15.6862 17.9984 15.8897 17.983 16.0943 17.9731C16.4147 17.9566 16.7275 17.8698 17.0106 17.719C17.1547 17.6448 17.2952 17.564 17.4319 17.477C17.4319 17.477 17.4792 17.4462 17.5694 17.378C17.7179 17.268 17.8092 17.1899 17.9324 17.0612C18.0237 16.9666 18.1029 16.8555 18.1634 16.729C18.2492 16.5497 18.335 16.2076 18.3702 15.9227C18.3966 15.7049 18.3889 15.5861 18.3856 15.5124C18.3812 15.3947 18.2833 15.2726 18.1766 15.2209L17.5364 14.9338C17.5364 14.9338 16.5794 14.5169 15.9942 14.2507C15.933 14.224 15.8674 14.2087 15.8006 14.2056C15.7253 14.1979 15.6493 14.2063 15.5776 14.2304C15.5059 14.2545 15.4401 14.2937 15.3848 14.3453C15.3793 14.3431 15.3056 14.4058 14.5103 15.3694C14.4647 15.4307 14.4018 15.4771 14.3297 15.5026C14.2576 15.528 14.1796 15.5314 14.1055 15.5124C14.0338 15.4932 13.9636 15.4689 13.8954 15.4398C13.759 15.3826 13.7117 15.3606 13.6182 15.321C12.9869 15.0455 12.4024 14.6733 11.8857 14.2177C11.7471 14.0967 11.6184 13.9647 11.4864 13.8371C11.0537 13.4226 10.6765 12.9538 10.3644 12.4423L10.2995 12.3378C10.2529 12.2676 10.2152 12.1918 10.1873 12.1123C10.1455 11.9506 10.2544 11.8208 10.2544 11.8208C10.2544 11.8208 10.5217 11.5282 10.646 11.3698C10.767 11.2158 10.8693 11.0662 10.9353 10.9595C11.0651 10.7505 11.1058 10.536 11.0376 10.3699C10.7296 9.6175 10.4106 8.8684 10.0828 8.1248C10.0179 7.9774 9.82541 7.8718 9.65051 7.8509C9.59111 7.8443 9.53171 7.8377 9.47231 7.8333C9.32459 7.82596 9.17656 7.82743 9.02901 7.8377L9.25011 7.8289L9.25121 7.83Z" fill="#9D9D9D"/>
</svg>
